<svg xmlns="http://www.w3.org/2000/svg" width="181.06" height="35" viewBox="0 0 181.06 35"><rect class="svg__rect" x="0" y="0" width="113.2" height="35" fill="#C85857"/><rect class="svg__rect" x="111.2" y="0" width="69.86" height="35" fill="#B20000"/><path class="svg__text" d="M13.95 18.19L13.95 18.19L13.95 17.39Q13.95 16.19 14.38 15.27Q14.80 14.35 15.60 13.85Q16.40 13.35 17.45 13.35L17.45 13.35Q18.86 13.35 19.73 14.12Q20.59 14.89 20.73 16.29L20.73 16.29L19.25 16.29Q19.14 15.37 18.71 14.96Q18.28 14.55 17.45 14.55L17.45 14.55Q16.48 14.55 15.97 15.26Q15.45 15.96 15.44 17.33L15.44 17.33L15.44 18.09Q15.44 19.47 15.93 20.20Q16.43 20.92 17.38 20.92L17.38 20.92Q18.25 20.92 18.69 20.53Q19.13 20.14 19.25 19.22L19.25 19.22L20.73 19.22Q20.60 20.59 19.72 21.35Q18.84 22.12 17.38 22.12L17.38 22.12Q16.36 22.12 15.59 21.63Q14.81 21.15 14.39 20.26Q13.97 19.37 13.95 18.19ZM24.77 18.00L24.77 18.00L24.77 17.52Q24.77 16.28 25.21 15.32Q25.65 14.37 26.46 13.86Q27.27 13.35 28.31 13.35Q29.35 13.35 30.16 13.85Q30.96 14.35 31.40 15.29Q31.84 16.23 31.85 17.48L31.85 17.48L31.85 17.96Q31.85 19.21 31.41 20.16Q30.98 21.10 30.18 21.61Q29.37 22.12 28.32 22.12L28.32 22.12Q27.28 22.12 26.47 21.61Q25.66 21.10 25.22 20.17Q24.78 19.23 24.77 18.00ZM26.25 17.46L26.25 17.96Q26.25 19.36 26.80 20.13Q27.35 20.90 28.32 20.90L28.32 20.90Q29.31 20.90 29.84 20.15Q30.37 19.40 30.37 17.96L30.37 17.96L30.37 17.51Q30.37 16.09 29.83 15.34Q29.29 14.58 28.31 14.58L28.31 14.58Q27.35 14.58 26.81 15.33Q26.26 16.09 26.25 17.46L26.25 17.46ZM38.77 22L36.31 22L36.31 13.47L38.83 13.47Q39.96 13.47 40.84 13.97Q41.72 14.48 42.20 15.40Q42.68 16.33 42.68 17.52L42.68 17.52L42.68 17.95Q42.68 19.16 42.19 20.08Q41.71 21.00 40.82 21.50Q39.92 22 38.77 22L38.77 22ZM37.80 14.66L37.80 20.82L38.76 20.82Q39.93 20.82 40.55 20.09Q41.18 19.36 41.19 17.99L41.19 17.99L41.19 17.52Q41.19 16.13 40.58 15.40Q39.98 14.66 38.83 14.66L38.83 14.66L37.80 14.66ZM52.72 22L47.14 22L47.14 13.47L52.68 13.47L52.68 14.66L48.62 14.66L48.62 17.02L52.13 17.02L52.13 18.19L48.62 18.19L48.62 20.82L52.72 20.82L52.72 22ZM64.27 22L62.31 13.47L63.78 13.47L65.10 19.88L66.73 13.47L67.97 13.47L69.58 19.89L70.89 13.47L72.37 13.47L70.40 22L68.98 22L67.36 15.77L65.70 22L64.27 22ZM78.00 22L76.53 22L76.53 13.47L78.00 13.47L78.00 22ZM84.49 14.66L81.86 14.66L81.86 13.47L88.63 13.47L88.63 14.66L85.97 14.66L85.97 22L84.49 22L84.49 14.66ZM93.86 22L92.38 22L92.38 13.47L93.86 13.47L93.86 17.02L97.68 17.02L97.68 13.47L99.15 13.47L99.15 22L97.68 22L97.68 18.21L93.86 18.21L93.86 22Z" fill="#FFFFFF"/><path class="svg__text" d="M131.77 22L125.39 22L125.39 13.60L127.77 13.60L127.77 20.11L131.77 20.11L131.77 22ZM135.76 17.80L135.76 17.80Q135.76 16.55 136.37 15.55Q136.97 14.56 138.04 14.00Q139.10 13.43 140.43 13.43L140.43 13.43Q141.76 13.43 142.82 14.00Q143.89 14.56 144.49 15.55Q145.10 16.55 145.10 17.80L145.10 17.80Q145.10 19.05 144.49 20.04Q143.89 21.04 142.83 21.60Q141.76 22.17 140.43 22.17L140.43 22.17Q139.10 22.17 138.04 21.60Q136.97 21.04 136.37 20.04Q135.76 19.05 135.76 17.80ZM138.16 17.80L138.16 17.80Q138.16 18.51 138.46 19.05Q138.76 19.60 139.28 19.90Q139.80 20.20 140.43 20.20L140.43 20.20Q141.07 20.20 141.58 19.90Q142.10 19.60 142.40 19.05Q142.70 18.51 142.70 17.80L142.70 17.80Q142.70 17.09 142.40 16.54Q142.10 16 141.58 15.70Q141.07 15.40 140.43 15.40L140.43 15.40Q139.79 15.40 139.28 15.70Q138.76 16 138.46 16.54Q138.16 17.09 138.16 17.80ZM152.41 22L148.82 13.60L151.39 13.60L153.67 19.07L156.00 13.60L158.35 13.60L154.75 22L152.41 22ZM169.25 22L162.50 22L162.50 13.60L169.09 13.60L169.09 15.44L164.86 15.44L164.86 16.85L168.59 16.85L168.59 18.63L164.86 18.63L164.86 20.17L169.25 20.17L169.25 22Z" fill="#FFFFFF" x="124.2"/></svg>